<svg xmlns="http://www.w3.org/2000/svg" xmlns:xlink="http://www.w3.org/1999/xlink" viewBox="0 0 414.29 653.85">
  <defs>
    <style>
      .a {
        fill: #d5e381;
      }

      .a, .b {
        stroke: #050303;
      }

      .a, .b, .c {
        stroke-miterlimit: 10;
        stroke-width: 0.5px;
      }

      .b {
        fill: #231f20;
      }

      .c {
        stroke: #010101;
        fill: url(#a);
      }
    </style>
    <linearGradient id="a" x1="171.23" y1="477.5" x2="564.64" y2="477.5" gradientTransform="translate(171.22 -155.35) rotate(26.91)" gradientUnits="userSpaceOnUse">
      <stop offset="0" stop-color="#da78b0"/>
      <stop offset="0.09" stop-color="#c56ca3"/>
      <stop offset="0.27" stop-color="#a1568c"/>
      <stop offset="0.46" stop-color="#84457b"/>
      <stop offset="0.64" stop-color="#703a6e"/>
      <stop offset="0.82" stop-color="#643267"/>
      <stop offset="1" stop-color="#603064"/>
    </linearGradient>
  </defs>
  <path class="a" d="M391.58,129.8c-43.7,33.9-104.51,33.14-155.71,54.06-25.32,10.35-51,26.51-77.83,21.37a260.78,260.78,0,0,1,21.48-60.54c4.21-8.39,9-16.75,16.22-22.77,10.37-8.67,24.31-11.46,37.67-13.51a620.29,620.29,0,0,1,101.24-7.12c22.75.27,47.28,1.32,66.17-11.37,10.22-6.86,17.73-17.18,27.9-24.12,6-4.07,22.69-11.42,27.63-2.36,5,9.21-10,14.71-15.63,19.27C423.08,97.07,409.58,115.83,391.58,129.8Z" transform="translate(-88.16 -47.63)"/>
  <path class="b" d="M342.21,219c14.62-14.35,21.06-34.87,31.91-52.26,6-9.66,13.45-18.38,19.76-27.86,7.25-10.91,13-22.75,18.14-34.79a421.38,421.38,0,0,0,18.3-51.93,5.75,5.75,0,0,1,8-3.67l35.24,16.72a12.17,12.17,0,0,1,4.58,3.12c3.06,4,.26,9.61-2.61,13.71-35.11,50.11-81.16,93.38-105.89,149.34" transform="translate(-88.16 -47.63)"/>
  <path class="c" d="M373.46,203.47c-7.23-10.23-20-15.46-32.46-16.41s-24.95,1.8-37.14,4.7C265,201,225.66,212.21,193.32,235.59c-18.23,13.19-33.69,29.91-47.29,47.84C98.92,345.51,73.45,428.89,97.8,502.92c8.06,24.51,5.91,50.77,16.1,74.47,10.43,24.26,21,48.86,37.58,69.46,36.63,45.63,102.24,65.59,158.08,48.09,50.09-15.7,88.24-57.24,114.64-102.61s43.3-95.56,66.42-142.68c12.47-25.43,13.69-54.52,9.2-82.48-9.27-57.71-34.94-115-81.26-150.66C405.07,206.13,390.29,201,373.46,203.47Z" transform="translate(-88.16 -47.63)"/>
</svg>
